<svg width="33" height="33" viewBox="0 0 33 33" fill="none" xmlns="http://www.w3.org/2000/svg">
<g opacity="0.5">
<path d="M16.4994 0C25.6122 0 33 7.38776 33 16.5006C33 25.6134 25.6122 33 16.4994 33C7.38659 33 -4.82857e-07 25.6134 -4.82857e-07 16.5006C-4.82857e-07 7.38776 7.38659 0 16.4994 0ZM16.4994 30.0872C24.0038 30.0872 30.0872 24.0038 30.0872 16.5006C30.0872 8.99622 24.0038 2.9128 16.4994 2.9128C8.99622 2.9128 2.9128 8.99622 2.9128 16.5006C2.9128 24.0038 8.99622 30.0872 16.4994 30.0872Z" fill="#787878"/>
<path d="M14.3462 16.5L9.7265 11.8803C9.13176 11.2856 9.13176 10.3217 9.7265 9.72691C10.3213 9.13217 11.2852 9.13217 11.8799 9.72691L16.4996 14.3466L21.1193 9.72691C21.714 9.13217 22.6779 9.13217 23.2727 9.72691C23.8674 10.3217 23.8674 11.2856 23.2727 11.8803L18.653 16.5L23.2727 21.1197C23.8674 21.7144 23.8674 22.6784 23.2727 23.2731C22.975 23.5702 22.5854 23.719 22.1963 23.719C21.8072 23.719 21.417 23.5702 21.1199 23.2731L16.5002 18.6534L11.8805 23.2731C11.5828 23.5702 11.1932 23.719 10.8041 23.719C10.4144 23.719 10.0248 23.5702 9.72768 23.2731C9.13293 22.6784 9.13293 21.7144 9.72768 21.1197L14.3462 16.5Z" fill="#787878"/>
</g>
</svg>
