<svg width="46" height="46" viewBox="0 0 46 46" fill="none" xmlns="http://www.w3.org/2000/svg">
<rect width="46" height="46" rx="12" fill="#FEFEFE"/>
<path d="M32.4897 31.75V17.75H18.4897V16.875C18.4897 15.4274 19.6671 14.25 21.1147 14.25H23.7397V9H21.1147C19.027 9.00259 17.0254 9.83311 15.5491 11.3094C14.0729 12.7857 13.2423 14.7872 13.2397 16.875V17.75H9.73975V23H13.2397V31.75H9.73975V37H21.9897V31.75H18.4897V23H27.2887V31.75H23.7397V37H35.9897V31.75H32.4897Z" fill="#1DBF73"/>
<path d="M29.8647 14.25C31.3145 14.25 32.4897 13.0747 32.4897 11.625C32.4897 10.1753 31.3145 9 29.8647 9C28.415 9 27.2397 10.1753 27.2397 11.625C27.2397 13.0747 28.415 14.25 29.8647 14.25Z" fill="#1DBF73"/>
</svg>
