<svg width="46" height="46" viewBox="0 0 46 46" fill="none" xmlns="http://www.w3.org/2000/svg">
<path d="M11.6644 45.8373C8.92876 45.7129 7.44268 45.2576 6.45425 44.8721C5.14453 44.3622 4.21078 43.7552 3.22781 42.7736C2.24484 41.792 1.63646 40.8582 1.12925 39.5485C0.743722 38.5601 0.288466 37.074 0.164056 34.3383C0.0273427 31.3812 0 30.494 0 23.0021C0 15.5101 0.030077 14.6242 0.162689 11.6644C0.287098 8.92876 0.745089 7.44542 1.12789 6.45425C1.63783 5.14453 2.2462 4.21078 3.22644 3.22644C4.20804 2.24484 5.1418 1.63509 6.45288 1.12789C7.44132 0.742354 8.92739 0.287098 11.663 0.162689C14.6215 0.0273427 15.5101 0 22.9993 0C30.4912 0 31.3771 0.030077 34.337 0.162689C37.0726 0.287098 38.5559 0.745089 39.5471 1.12789C40.8568 1.63509 41.7906 2.24484 42.7736 3.22644C43.7565 4.20804 44.3622 5.14316 44.8721 6.45288C45.2576 7.44132 45.7129 8.92739 45.8373 11.663C45.9727 14.6229 46 15.5088 46 23.0007C46 30.4899 45.9727 31.3785 45.8373 34.3383C45.7129 37.074 45.2549 38.5601 44.8721 39.5485C44.3622 40.8582 43.7552 41.792 42.7736 42.7736C41.792 43.7552 40.8568 44.3622 39.5471 44.8721C38.5587 45.2576 37.0726 45.7129 34.337 45.8373C31.3799 45.9727 30.4912 46 22.9993 46C15.5101 46 14.6215 45.974 11.6644 45.8373Z" fill="url(#paint0_radial_3671_1129)"/>
<path d="M11.6644 45.8373C8.92876 45.7129 7.44268 45.2576 6.45425 44.8721C5.14453 44.3622 4.21078 43.7552 3.22781 42.7736C2.24484 41.792 1.63646 40.8582 1.12925 39.5485C0.743722 38.5601 0.288466 37.074 0.164056 34.3383C0.0273427 31.3812 0 30.494 0 23.0021C0 15.5101 0.030077 14.6242 0.162689 11.6644C0.287098 8.92876 0.745089 7.44542 1.12789 6.45425C1.63783 5.14453 2.2462 4.21078 3.22644 3.22644C4.20804 2.24484 5.1418 1.63509 6.45288 1.12789C7.44132 0.742354 8.92739 0.287098 11.663 0.162689C14.6215 0.0273427 15.5101 0 22.9993 0C30.4912 0 31.3771 0.030077 34.337 0.162689C37.0726 0.287098 38.5559 0.745089 39.5471 1.12789C40.8568 1.63509 41.7906 2.24484 42.7736 3.22644C43.7565 4.20804 44.3622 5.14316 44.8721 6.45288C45.2576 7.44132 45.7129 8.92739 45.8373 11.663C45.9727 14.6229 46 15.5088 46 23.0007C46 30.4899 45.9727 31.3785 45.8373 34.3383C45.7129 37.074 45.2549 38.5601 44.8721 39.5485C44.3622 40.8582 43.7552 41.792 42.7736 42.7736C41.792 43.7552 40.8568 44.3622 39.5471 44.8721C38.5587 45.2576 37.0726 45.7129 34.337 45.8373C31.3799 45.9727 30.4912 46 22.9993 46C15.5101 46 14.6215 45.974 11.6644 45.8373Z" fill="url(#paint1_radial_3671_1129)"/>
<path d="M17.3347 23C17.3347 19.8705 19.8711 17.3329 23.0007 17.3329C26.1303 17.3329 28.668 19.8705 28.668 23C28.668 26.1295 26.1303 28.6671 23.0007 28.6671C19.8711 28.6671 17.3347 26.1295 17.3347 23ZM14.271 23C14.271 27.8212 18.1793 31.7293 23.0007 31.7293C27.8221 31.7293 31.7303 27.8212 31.7303 23C31.7303 18.1788 27.8221 14.2707 23.0007 14.2707C18.1793 14.2707 14.2712 18.1785 14.2712 23M30.036 13.9246C30.0358 14.3281 30.1553 14.7225 30.3793 15.0581C30.6034 15.3937 30.9219 15.6553 31.2946 15.8098C31.6673 15.9644 32.0775 16.0049 32.4733 15.9264C32.869 15.8478 33.2326 15.6537 33.518 15.3685C33.8035 15.0833 33.9979 14.7199 34.0768 14.3242C34.1556 13.9285 34.1154 13.5183 33.9612 13.1455C33.8069 12.7727 33.5455 12.4539 33.2101 12.2297C32.8747 12.0054 32.4804 11.8856 32.0769 11.8854H32.0761C31.5352 11.8857 31.0166 12.1005 30.6341 12.4829C30.2516 12.8652 30.0364 13.3838 30.036 13.9246ZM16.1324 36.8377C14.4749 36.7622 13.574 36.4862 12.9753 36.2529C12.1816 35.9439 11.6153 35.5759 11.0198 34.9813C10.4244 34.3867 10.0558 33.821 9.74817 33.0273C9.51479 32.4289 9.2387 31.5277 9.16335 29.8703C9.08093 28.0784 9.06447 27.5401 9.06447 23.0003C9.06447 18.4605 9.08229 17.9237 9.16335 16.1302C9.23883 14.4728 9.51696 13.5734 9.74817 12.9733C10.0572 12.1796 10.4252 11.6133 11.0198 11.0179C11.6144 10.4224 12.1802 10.0539 12.9753 9.74626C13.5737 9.51288 14.4749 9.2368 16.1324 9.16146C17.9244 9.07904 18.4627 9.06258 23.0007 9.06258C27.5386 9.06258 28.0775 9.08013 29.871 9.16173C31.5285 9.23721 32.4279 9.51533 33.0281 9.74653C33.8218 10.0542 34.3881 10.4235 34.9836 11.0181C35.579 11.6127 35.9462 12.1798 36.2552 12.9735C36.4886 13.5719 36.7647 14.4731 36.84 16.1305C36.9225 17.9239 36.9389 18.4607 36.9389 23.0005C36.9389 27.5404 36.9225 28.0772 36.84 29.8706C36.7646 31.528 36.4871 32.4289 36.2552 33.0276C35.9462 33.8212 35.5782 34.3876 34.9836 34.9816C34.389 35.5756 33.8218 35.9442 33.0281 36.2532C32.4297 36.4866 31.5285 36.7627 29.871 36.838C28.079 36.9204 27.5407 36.9369 23.0007 36.9369C18.4607 36.9369 17.9239 36.9204 16.1324 36.838M15.9916 6.10295C14.1818 6.18537 12.9451 6.47233 11.8651 6.89257C10.7473 7.32654 9.79972 7.90876 8.85353 8.85342C7.90734 9.79807 7.3266 10.7457 6.8926 11.8649C6.47235 12.9455 6.18538 14.1815 6.10296 15.9912C6.01918 17.8038 6 18.3833 6 23C6 27.6167 6.01918 28.1962 6.10296 30.0088C6.18538 31.8186 6.47235 33.0545 6.8926 34.1351C7.3266 35.2529 7.90748 36.2023 8.85353 37.1466C9.79958 38.0908 10.7459 38.6722 11.8651 39.1074C12.9472 39.5277 14.1818 39.8146 15.9916 39.897C17.8053 39.9795 18.3838 40 23.0007 40C27.6175 40 28.197 39.9808 30.0097 39.897C31.8197 39.8146 33.0556 39.5277 34.1363 39.1074C35.2541 38.6722 36.2016 38.0912 37.1478 37.1466C38.094 36.2019 38.6735 35.2529 39.1088 34.1351C39.529 33.0545 39.8173 31.8185 39.8984 30.0088C39.9808 28.1948 40 27.6167 40 23C40 18.3833 39.9808 17.8038 39.8984 15.9912C39.816 14.1814 39.529 12.9448 39.1088 11.8649C38.6735 10.7471 38.0925 9.79957 37.1478 8.85342C36.2031 7.90726 35.2541 7.32654 34.1376 6.89257C33.0556 6.47233 31.8195 6.18401 30.0111 6.10295C28.1981 6.02013 27.6189 6 23.0027 6C18.3866 6 17.806 6.01918 15.9923 6.10295" fill="white"/>
<defs>
<radialGradient id="paint0_radial_3671_1129" cx="0" cy="0" r="1" gradientUnits="userSpaceOnUse" gradientTransform="translate(2.97707 44.9923) scale(58.4029)">
<stop offset="0.09" stop-color="#FA8F21"/>
<stop offset="0.78" stop-color="#D82D7E"/>
</radialGradient>
<radialGradient id="paint1_radial_3671_1129" cx="0" cy="0" r="1" gradientUnits="userSpaceOnUse" gradientTransform="translate(31.8626 43.5152) scale(51.3951)">
<stop offset="0.64" stop-color="#8C3AAA" stop-opacity="0"/>
<stop offset="1" stop-color="#8C3AAA"/>
</radialGradient>
</defs>
</svg>
